<svg width="25" height="24" viewBox="0 0 25 24" fill="none" xmlns="http://www.w3.org/2000/svg">
<path d="M6.636 18.364C8.10845 19.8365 10.0459 20.7528 12.1183 20.9568C14.1906 21.1608 16.2696 20.6399 18.0009 19.4828C19.7322 18.3257 21.0087 16.6041 21.6129 14.6113C22.217 12.6185 22.1115 10.4778 21.3142 8.55414C20.5169 6.63045 19.0772 5.04277 17.2404 4.06164C15.4037 3.08051 13.2835 2.76667 11.2413 3.17358C9.19909 3.5805 7.36116 4.68299 6.04073 6.29319C4.72031 7.90338 3.99909 9.92163 4 12.004V14" stroke="white" stroke-width="2.5" stroke-linecap="round" stroke-linejoin="round"/>
<path d="M2 12L4 14L6 12M12 8V13H17" stroke="white" stroke-width="2.5" stroke-linecap="round" stroke-linejoin="round"/>
</svg>
