<svg width="24" height="24" viewBox="0 0 24 24" fill="none" xmlns="http://www.w3.org/2000/svg">
    <path fill-rule="evenodd" clip-rule="evenodd"
        d="M12.2175 4.125C12.4909 3.44855 13.0015 2.89493 13.6537 2.56777C14.3058 2.2406 15.0548 2.16231 15.7606 2.34756C16.4663 2.5328 17.0803 2.96888 17.4877 3.57417C17.8951 4.17946 18.0679 4.91247 17.9738 5.636C17.8798 6.35953 17.5253 7.02399 16.9767 7.505C16.4281 7.98601 15.7229 8.2506 14.9933 8.24925C14.2637 8.2479 13.5596 7.9807 13.0128 7.49767C12.4659 7.01464 12.1139 6.34888 12.0225 5.625H7.5C6.90326 5.625 6.33097 5.86205 5.90901 6.28401C5.48705 6.70597 5.25 7.27826 5.25 7.875C5.25 8.47174 5.48705 9.04404 5.90901 9.46599C6.33097 9.88795 6.90326 10.125 7.5 10.125H18C18.9946 10.125 19.9484 10.5201 20.6517 11.2234C21.3549 11.9266 21.75 12.8804 21.75 13.875C21.75 14.8696 21.3549 15.8234 20.6517 16.5267C19.9484 17.2299 18.9946 17.625 18 17.625H9.7275C9.63612 18.3489 9.28406 19.0146 8.73723 19.4977C8.19041 19.9807 7.48629 20.2479 6.75667 20.2493C6.02705 20.2506 5.32195 19.986 4.77334 19.505C4.22473 19.024 3.87022 18.3595 3.77616 17.636C3.6821 16.9125 3.85494 16.1795 4.26233 15.5742C4.66972 14.9689 5.28374 14.5328 5.98945 14.3476C6.69516 14.1623 7.44419 14.2406 8.09635 14.5678C8.7485 14.8949 9.25907 15.4486 9.5325 16.125H18C18.5967 16.125 19.169 15.8879 19.591 15.466C20.0129 15.044 20.25 14.4717 20.25 13.875C20.25 13.2783 20.0129 12.706 19.591 12.284C19.169 11.8621 18.5967 11.625 18 11.625H7.5C6.50544 11.625 5.55161 11.2299 4.84835 10.5267C4.14509 9.82339 3.75 8.86956 3.75 7.875C3.75 6.88044 4.14509 5.92661 4.84835 5.22335C5.55161 4.52009 6.50544 4.125 7.5 4.125H12.2175Z"
        fill="white" />
</svg>
    