<svg width="24" height="24" viewBox="0 0 24 24" fill="none" xmlns="http://www.w3.org/2000/svg">
<path d="M13.2001 11.124V0L20.4001 13.2L15.6001 20.4H8.4001L3.6001 13.2L10.8001 0V11.124C10.3426 11.3882 9.98497 11.7959 9.78279 12.284C9.58061 12.7721 9.54514 13.3133 9.68188 13.8236C9.81862 14.3339 10.1199 14.7849 10.5391 15.1065C10.9582 15.4281 11.4718 15.6025 12.0001 15.6025C12.5284 15.6025 13.042 15.4281 13.4611 15.1065C13.8803 14.7849 14.1816 14.3339 14.3183 13.8236C14.4551 13.3133 14.4196 12.7721 14.2174 12.284C14.0152 11.7959 13.6576 11.3882 13.2001 11.124ZM7.2001 21.6H16.8001V24H7.2001V21.6Z" fill="white"/>
</svg>
