<svg width="27" height="27" viewBox="0 0 27 27" fill="none" xmlns="http://www.w3.org/2000/svg">
<path d="M8.4375 8.64845C8.4375 8.64845 8.51344 6.90821 10.2062 5.51286C11.2113 4.6844 12.4184 4.44446 13.5 4.4297C14.4877 4.41757 15.3705 4.58474 15.8984 4.84208C16.8006 5.28399 18.5625 6.35977 18.5625 8.64845C18.5625 11.0568 17.0237 12.1484 15.2745 13.3513C13.5253 14.5542 13.0781 15.7338 13.0781 17.0859" stroke="#013A6F" stroke-width="3.75" stroke-miterlimit="10" stroke-linecap="round"/>
<path d="M13.0781 24.4609C14.0101 24.4609 14.7656 23.7054 14.7656 22.7734C14.7656 21.8415 14.0101 21.0859 13.0781 21.0859C12.1461 21.0859 11.3906 21.8415 11.3906 22.7734C11.3906 23.7054 12.1461 24.4609 13.0781 24.4609Z" fill="#013A6F"/>
</svg>
