<svg width="27" height="27" viewBox="0 0 27 27" fill="none" xmlns="http://www.w3.org/2000/svg">
    <path
        d="M13.5001 24.75C14.7376 24.75 15.7501 23.7375 15.7501 22.5H11.2501C11.2501 23.0967 11.4872 23.669 11.9091 24.091C12.3311 24.5129 12.9034 24.75 13.5001 24.75ZM20.2501 18V12.375C20.2501 8.92125 18.4051 6.03 15.1876 5.265V4.5C15.1876 3.56625 14.4339 2.8125 13.5001 2.8125C12.5664 2.8125 11.8126 3.56625 11.8126 4.5V5.265C8.58387 6.03 6.75012 8.91 6.75012 12.375V18L5.29887 19.4513C4.59012 20.16 5.08512 21.375 6.08637 21.375H20.9026C21.9039 21.375 22.4101 20.16 21.7014 19.4513L20.2501 18Z"
        fill="#013A6F" />
</svg>
    