<svg width="229" height="195" viewBox="0 0 229 195" fill="none" xmlns="http://www.w3.org/2000/svg">
    <g opacity="0.1">
        <path
            d="M90.7398 29.2708C90.7398 26.9419 89.8146 24.7084 88.1678 23.0616C86.521 21.4148 84.2874 20.4896 81.9585 20.4896C79.6296 20.4896 77.396 21.4148 75.7492 23.0616C74.1024 24.7084 73.1773 26.9419 73.1773 29.2708V47.77C56.3173 49.1165 45.2646 52.4182 37.139 60.5555C29.0017 68.6811 25.7 79.7455 24.3418 96.5938H256.659C255.3 79.7338 251.999 68.6811 243.861 60.5555C235.736 52.4182 224.671 49.1165 207.823 47.7583V29.2708C207.823 26.9419 206.898 24.7084 205.251 23.0616C203.604 21.4148 201.371 20.4896 199.042 20.4896C196.713 20.4896 194.479 21.4148 192.833 23.0616C191.186 24.7084 190.261 26.9419 190.261 29.2708V46.9855C182.475 46.8333 173.74 46.8333 163.917 46.8333H117.084C107.26 46.8333 98.5258 46.8333 90.7398 46.9855V29.2708Z"
            fill="#013A6F" />
        <path fill-rule="evenodd" clip-rule="evenodd"
            d="M23.4165 140.5C23.4165 130.677 23.4165 121.942 23.5687 114.156H257.431C257.583 121.942 257.583 130.677 257.583 140.5V163.917C257.583 208.069 257.583 230.151 243.861 243.861C230.139 257.572 208.069 257.583 163.917 257.583H117.083C72.931 257.583 50.8491 257.583 37.1387 243.861C23.4282 230.139 23.4165 208.069 23.4165 163.917V140.5ZM199.042 163.917C202.147 163.917 205.125 162.683 207.321 160.487C209.516 158.292 210.75 155.314 210.75 152.208C210.75 149.103 209.516 146.125 207.321 143.929C205.125 141.734 202.147 140.5 199.042 140.5C195.936 140.5 192.958 141.734 190.762 143.929C188.567 146.125 187.333 149.103 187.333 152.208C187.333 155.314 188.567 158.292 190.762 160.487C192.958 162.683 195.936 163.917 199.042 163.917ZM199.042 210.75C202.147 210.75 205.125 209.516 207.321 207.321C209.516 205.125 210.75 202.147 210.75 199.042C210.75 195.936 209.516 192.958 207.321 190.763C205.125 188.567 202.147 187.333 199.042 187.333C195.936 187.333 192.958 188.567 190.762 190.763C188.567 192.958 187.333 195.936 187.333 199.042C187.333 202.147 188.567 205.125 190.762 207.321C192.958 209.516 195.936 210.75 199.042 210.75ZM152.208 152.208C152.208 155.314 150.975 158.292 148.779 160.487C146.583 162.683 143.605 163.917 140.5 163.917C137.395 163.917 134.417 162.683 132.221 160.487C130.025 158.292 128.792 155.314 128.792 152.208C128.792 149.103 130.025 146.125 132.221 143.929C134.417 141.734 137.395 140.5 140.5 140.5C143.605 140.5 146.583 141.734 148.779 143.929C150.975 146.125 152.208 149.103 152.208 152.208ZM152.208 199.042C152.208 202.147 150.975 205.125 148.779 207.321C146.583 209.516 143.605 210.75 140.5 210.75C137.395 210.75 134.417 209.516 132.221 207.321C130.025 205.125 128.792 202.147 128.792 199.042C128.792 195.936 130.025 192.958 132.221 190.763C134.417 188.567 137.395 187.333 140.5 187.333C143.605 187.333 146.583 188.567 148.779 190.763C150.975 192.958 152.208 195.936 152.208 199.042ZM81.9582 163.917C85.0634 163.917 88.0415 162.683 90.2372 160.487C92.433 158.292 93.6665 155.314 93.6665 152.208C93.6665 149.103 92.433 146.125 90.2372 143.929C88.0415 141.734 85.0634 140.5 81.9582 140.5C78.8529 140.5 75.8749 141.734 73.6791 143.929C71.4834 146.125 70.2498 149.103 70.2498 152.208C70.2498 155.314 71.4834 158.292 73.6791 160.487C75.8749 162.683 78.8529 163.917 81.9582 163.917ZM81.9582 210.75C85.0634 210.75 88.0415 209.516 90.2372 207.321C92.433 205.125 93.6665 202.147 93.6665 199.042C93.6665 195.936 92.433 192.958 90.2372 190.763C88.0415 188.567 85.0634 187.333 81.9582 187.333C78.8529 187.333 75.8749 188.567 73.6791 190.763C71.4834 192.958 70.2498 195.936 70.2498 199.042C70.2498 202.147 71.4834 205.125 73.6791 207.321C75.8749 209.516 78.8529 210.75 81.9582 210.75Z"
            fill="#013A6F" />
    </g>
</svg>
    