<svg width="229" height="195" viewBox="0 0 229 195" fill="none" xmlns="http://www.w3.org/2000/svg">
    <g opacity="0.1">
        <path
            d="M234.167 35.125C240.377 35.125 246.333 37.5921 250.725 41.9836C255.116 46.3751 257.583 52.3312 257.583 58.5417V222.458C257.583 228.669 255.116 234.625 250.725 239.016C246.333 243.408 240.377 245.875 234.167 245.875H46.8332C40.6227 245.875 34.6666 243.408 30.2751 239.016C25.8836 234.625 23.4165 228.669 23.4165 222.458V58.5417C23.4165 52.3312 25.8836 46.3751 30.2751 41.9836C34.6666 37.5921 40.6227 35.125 46.8332 35.125H234.167ZM199.042 175.625H81.9582C78.8529 175.625 75.8749 176.859 73.6791 179.054C71.4834 181.25 70.2498 184.228 70.2498 187.333C70.2498 190.439 71.4834 193.417 73.6791 195.612C75.8749 197.808 78.8529 199.042 81.9582 199.042H199.042C202.147 199.042 205.125 197.808 207.321 195.612C209.516 193.417 210.75 190.439 210.75 187.333C210.75 184.228 209.516 181.25 207.321 179.054C205.125 176.859 202.147 175.625 199.042 175.625ZM117.083 81.9583H93.6665C87.7588 81.9565 82.0686 84.1877 77.7368 88.2047C73.4049 92.2217 70.7515 97.7276 70.3084 103.619L70.2498 105.375V128.792C70.248 134.699 72.4792 140.39 76.4962 144.721C80.5132 149.053 86.0191 151.707 91.9103 152.15L93.6665 152.208H117.083C122.991 152.21 128.681 149.979 133.013 145.962C137.345 141.945 139.998 136.439 140.441 130.548L140.5 128.792V105.375C140.502 99.4672 138.271 93.7771 134.253 89.4452C130.236 85.1134 124.731 82.46 118.839 82.0169L117.083 81.9583ZM199.042 128.792H163.917C160.932 128.795 158.062 129.938 155.892 131.986C153.722 134.035 152.416 136.835 152.241 139.814C152.066 142.793 153.036 145.726 154.951 148.015C156.866 150.303 159.583 151.774 162.547 152.126L163.917 152.208H199.042C202.026 152.205 204.896 151.062 207.066 149.014C209.236 146.965 210.542 144.165 210.717 141.186C210.892 138.207 209.922 135.274 208.007 132.985C206.092 130.697 203.375 129.226 200.411 128.874L199.042 128.792ZM117.083 105.375V128.792H93.6665V105.375H117.083ZM199.042 81.9583H163.917C160.811 81.9583 157.833 83.1919 155.637 85.3876C153.442 87.5834 152.208 90.5614 152.208 93.6667C152.208 96.7719 153.442 99.75 155.637 101.946C157.833 104.141 160.811 105.375 163.917 105.375H199.042C202.147 105.375 205.125 104.141 207.321 101.946C209.516 99.75 210.75 96.7719 210.75 93.6667C210.75 90.5614 209.516 87.5834 207.321 85.3876C205.125 83.1919 202.147 81.9583 199.042 81.9583Z"
            fill="#013A6F" />
    </g>
</svg>
    