<svg width="24" height="24" viewBox="0 0 24 24" fill="none" xmlns="http://www.w3.org/2000/svg">
<path d="M14.6 12H14C13.7167 12 13.4793 12.096 13.288 12.288C13.0967 12.48 13.0007 12.7173 13 13C12.9993 13.2827 13.0953 13.5203 13.288 13.713C13.4807 13.9057 13.718 14.0013 14 14H17C17.2833 14 17.521 13.904 17.713 13.712C17.905 13.52 18.0007 13.2827 18 13V10C18 9.71667 17.904 9.47933 17.712 9.288C17.52 9.09667 17.2827 9.00067 17 9C16.7173 8.99933 16.48 9.09533 16.288 9.288C16.096 9.48067 16 9.718 16 10V10.55C15.4667 9.91667 14.8293 9.41667 14.088 9.05C13.3467 8.68333 12.534 8.5 11.65 8.5C10.2667 8.5 9.07067 8.91267 8.062 9.738C7.05334 10.5633 6.408 11.6007 6.126 12.85C6.05933 13.15 6.11767 13.4167 6.301 13.65C6.48433 13.8833 6.71733 14 7 14C7.28267 14 7.52867 13.896 7.738 13.688C7.94733 13.48 8.093 13.234 8.175 12.95C8.40833 12.2333 8.84167 11.646 9.475 11.188C10.1083 10.73 10.8333 10.5007 11.65 10.5C12.25 10.5 12.8083 10.6377 13.325 10.913C13.8417 11.1883 14.2667 11.5507 14.6 12ZM12 22C10.6167 22 9.31667 21.7373 8.1 21.212C6.88334 20.6867 5.825 19.9743 4.925 19.075C4.025 18.1757 3.31267 17.1173 2.788 15.9C2.26333 14.6827 2.00067 13.3827 2 12C1.99933 10.6173 2.262 9.31733 2.788 8.1C3.314 6.88267 4.02633 5.82433 4.925 4.925C5.82367 4.02567 6.882 3.31333 8.1 2.788C9.318 2.26267 10.618 2 12 2C13.382 2 14.682 2.26267 15.9 2.788C17.118 3.31333 18.1763 4.02567 19.075 4.925C19.9737 5.82433 20.6863 6.88267 21.213 8.1C21.7397 9.31733 22.002 10.6173 22 12C21.998 13.3827 21.7353 14.6827 21.212 15.9C20.6887 17.1173 19.9763 18.1757 19.075 19.075C18.1737 19.9743 17.1153 20.687 15.9 21.213C14.6847 21.739 13.3847 22.0013 12 22Z" fill="white"/>
</svg>
