<svg width="24" height="19" viewBox="0 0 24 19" fill="none" xmlns="http://www.w3.org/2000/svg">
    <path
        d="M7.2 9.5C9.52125 9.5 11.4 7.64082 11.4 5.34375C11.4 3.04668 9.52125 1.1875 7.2 1.1875C4.87875 1.1875 3 3.04668 3 5.34375C3 7.64082 4.87875 9.5 7.2 9.5ZM10.08 10.6875H9.76875C8.98875 11.0586 8.1225 11.2812 7.2 11.2812C6.2775 11.2812 5.415 11.0586 4.63125 10.6875H4.32C1.935 10.6875 0 12.6023 0 14.9625V16.0312C0 17.0146 0.80625 17.8125 1.8 17.8125H12.6C13.5938 17.8125 14.4 17.0146 14.4 16.0312V14.9625C14.4 12.6023 12.465 10.6875 10.08 10.6875ZM18 9.5C19.9875 9.5 21.6 7.9043 21.6 5.9375C21.6 3.9707 19.9875 2.375 18 2.375C16.0125 2.375 14.4 3.9707 14.4 5.9375C14.4 7.9043 16.0125 9.5 18 9.5ZM19.8 10.6875H19.6575C19.1363 10.8656 18.585 10.9844 18 10.9844C17.415 10.9844 16.8638 10.8656 16.3425 10.6875H16.2C15.435 10.6875 14.73 10.9064 14.1113 11.259C15.0263 12.235 15.6 13.5301 15.6 14.9625V16.3875C15.6 16.4691 15.5813 16.5471 15.5775 16.625H22.2C23.1938 16.625 24 15.8271 24 14.8438C24 12.5467 22.1213 10.6875 19.8 10.6875Z"
        fill="white" />
</svg>
    