<svg width="24" height="24" viewBox="0 0 24 24" fill="none" xmlns="http://www.w3.org/2000/svg">
<path fill-rule="evenodd" clip-rule="evenodd" d="M3.75 12.641V15.912C3.74999 16.4321 3.8975 16.9416 4.1754 17.3813C4.45329 17.821 4.85018 18.1728 5.32 18.396L10.32 20.77C10.6887 20.9452 11.0918 21.036 11.5 21.036C11.9082 21.036 12.3113 20.9452 12.68 20.77L17.68 18.396C18.1498 18.1728 18.5467 17.821 18.8246 17.3813C19.1025 16.9416 19.25 16.4321 19.25 15.912V12.642L12.775 15.879C12.3791 16.077 11.9426 16.1801 11.5 16.1801C11.0574 16.1801 10.6209 16.077 10.225 15.879L3.75 12.641Z" fill="white"/>
<path fill-rule="evenodd" clip-rule="evenodd" d="M10.8959 3.464C11.2759 3.274 11.7239 3.274 12.1039 3.464L20.7619 7.793C21.7569 8.29 21.7569 9.71 20.7619 10.208L12.1039 14.538C11.7239 14.728 11.2759 14.728 10.8959 14.538L2.23795 10.208C1.24295 9.71 1.24295 8.29 2.23795 7.793L10.8959 3.464Z" fill="white"/>
<path fill-rule="evenodd" clip-rule="evenodd" d="M19.83 8.165C19.9188 7.98704 20.0747 7.85167 20.2634 7.78866C20.452 7.72565 20.658 7.74016 20.836 7.829L22.836 8.829C22.9605 8.89139 23.0651 8.9872 23.1383 9.10571C23.2114 9.22422 23.2501 9.36075 23.25 9.5V13C23.25 13.1989 23.171 13.3897 23.0303 13.5303C22.8896 13.671 22.6989 13.75 22.5 13.75C22.3011 13.75 22.1103 13.671 21.9696 13.5303C21.829 13.3897 21.75 13.1989 21.75 13V9.964L20.165 9.171C19.987 9.08215 19.8516 8.92625 19.7886 8.73759C19.7256 8.54893 19.7411 8.34296 19.83 8.165Z" fill="white"/>
</svg>
