<svg width="24" height="24" viewBox="0 0 24 24" fill="none" xmlns="http://www.w3.org/2000/svg">
<path d="M18.231 1.881C19.383 1.94021 20.4682 2.43951 21.2626 3.27581C22.057 4.1121 22.5 5.22153 22.5 6.375V18.375C22.5 19.5685 22.0259 20.7131 21.182 21.557C20.3381 22.4009 19.1935 22.875 18 22.875H6C4.80653 22.875 3.66193 22.4009 2.81802 21.557C1.97411 20.7131 1.5 19.5685 1.5 18.375V6.375C1.5 5.18153 1.97411 4.03693 2.81802 3.19302C3.66193 2.34911 4.80653 1.875 6 1.875H18L18.231 1.881ZM6 4.125C5.40326 4.125 4.83097 4.36205 4.40901 4.78401C3.98705 5.20597 3.75 5.77826 3.75 6.375V18.375C3.75 18.9717 3.98705 19.544 4.40901 19.966C4.83097 20.3879 5.40326 20.625 6 20.625H18C18.5967 20.625 19.169 20.3879 19.591 19.966C20.0129 19.544 20.25 18.9717 20.25 18.375V6.375C20.2499 5.81804 20.0433 5.2809 19.6701 4.8675C19.2968 4.45409 18.7836 4.19381 18.2295 4.137L18 4.125H6ZM12 15C12.3978 15 12.7794 15.158 13.0607 15.4393C13.342 15.7206 13.5 16.1022 13.5 16.5C13.5 16.8978 13.342 17.2794 13.0607 17.5607C12.7794 17.842 12.3978 18 12 18C11.6022 18 11.2206 17.842 10.9393 17.5607C10.658 17.2794 10.5 16.8978 10.5 16.5C10.5 16.1022 10.658 15.7206 10.9393 15.4393C11.2206 15.158 11.6022 15 12 15ZM12 6.75C12.2984 6.75 12.5845 6.86853 12.7955 7.0795C13.0065 7.29048 13.125 7.57663 13.125 7.875V12.375C13.125 12.6734 13.0065 12.9595 12.7955 13.1705C12.5845 13.3815 12.2984 13.5 12 13.5C11.7016 13.5 11.4155 13.3815 11.2045 13.1705C10.9935 12.9595 10.875 12.6734 10.875 12.375V7.875C10.875 7.57663 10.9935 7.29048 11.2045 7.0795C11.4155 6.86853 11.7016 6.75 12 6.75Z" fill="white"/>
</svg>
