<svg width="24" height="24" viewBox="0 0 24 24" fill="none" xmlns="http://www.w3.org/2000/svg">
<path d="M17.625 17.0238C19.6816 15.5789 21 13.3641 21 10.875C21 6.52617 16.9711 3 12 3C7.02891 3 3 6.52617 3 10.875C3 13.3605 4.31836 15.5789 6.375 17.0238V19.3125C6.375 20.2441 7.13086 21 8.0625 21H9.75V19.3125C9.75 19.0031 10.0031 18.75 10.3125 18.75C10.6219 18.75 10.875 19.0031 10.875 19.3125V21H13.125V19.3125C13.125 19.0031 13.3781 18.75 13.6875 18.75C13.9969 18.75 14.25 19.0031 14.25 19.3125V21H15.9375C16.8691 21 17.625 20.2441 17.625 19.3125V17.0238ZM6.375 12C6.375 11.4033 6.61205 10.831 7.03401 10.409C7.45597 9.98705 8.02826 9.75 8.625 9.75C9.22174 9.75 9.79403 9.98705 10.216 10.409C10.6379 10.831 10.875 11.4033 10.875 12C10.875 12.5967 10.6379 13.169 10.216 13.591C9.79403 14.0129 9.22174 14.25 8.625 14.25C8.02826 14.25 7.45597 14.0129 7.03401 13.591C6.61205 13.169 6.375 12.5967 6.375 12ZM15.375 9.75C15.9717 9.75 16.544 9.98705 16.966 10.409C17.3879 10.831 17.625 11.4033 17.625 12C17.625 12.5967 17.3879 13.169 16.966 13.591C16.544 14.0129 15.9717 14.25 15.375 14.25C14.7783 14.25 14.206 14.0129 13.784 13.591C13.3621 13.169 13.125 12.5967 13.125 12C13.125 11.4033 13.3621 10.831 13.784 10.409C14.206 9.98705 14.7783 9.75 15.375 9.75Z" fill="white"/>
</svg>
